<!DOCTYPE svg PUBLIC "-//W3C//DTD SVG 20010904//EN" "http://www.w3.org/TR/2001/REC-SVG-20010904/DTD/svg10.dtd">
<svg version="1.0" xmlns="http://www.w3.org/2000/svg" width="68px" height="68px" viewBox="0 0 680 680" preserveAspectRatio="xMidYMid meet">
<g id="layer101" fill="#ff2956" stroke="none">
 <path d="M245 631 c-101 -47 -171 -138 -191 -244 -5 -28 -10 -35 -17 -28 -6 6 -17 11 -24 11 -24 0 -13 -36 22 -70 l35 -34 40 39 c22 21 40 45 40 52 0 16 -32 17 -47 2 -8 -8 -9 0 -2 31 29 126 120 208 245 218 87 7 155 -18 214 -77 106 -106 106 -276 0 -382 -101 -101 -271 -106 -373 -11 -26 25 -28 25 -45 9 -16 -17 -15 -19 13 -43 17 -14 58 -38 92 -55 119 -56 243 -31 344 70 66 66 89 124 89 221 0 97 -23 155 -89 221 -100 100 -227 126 -346 70z"/>
 <path d="M243 454 c-4 -11 27 -49 103 -125 99 -100 144 -130 144 -96 0 13 -220 237 -233 237 -4 0 -10 -7 -14 -16z"/>
 <path d="M396 448 c-23 -33 -19 -64 10 -87 34 -26 54 -26 82 -1 27 25 29 71 4 93 -27 25 -78 22 -96 -5z m70 -29 c9 -15 -11 -33 -30 -26 -9 4 -13 13 -10 22 7 17 30 20 40 4z"/>
 <path d="M252 323 c-31 -28 -35 -56 -11 -86 25 -33 70 -36 99 -7 27 27 25 56 -5 85 -28 29 -55 32 -83 8z m56 -50 c-2 -10 -10 -18 -18 -18 -8 0 -16 8 -18 18 -2 12 3 17 18 17 15 0 20 -5 18 -17z"/>
 </g>

</svg>