<!DOCTYPE svg PUBLIC "-//W3C//DTD SVG 20010904//EN" "http://www.w3.org/TR/2001/REC-SVG-20010904/DTD/svg10.dtd">
<svg version="1.0" xmlns="http://www.w3.org/2000/svg" width="395px" height="66px" viewBox="0 0 3950 660" preserveAspectRatio="xMidYMid meet">
<g id="layer101" fill="#0149a1" stroke="none">
 <path d="M760 410 l0 -250 30 0 c27 0 30 3 30 33 1 26 2 29 11 14 16 -27 64 -47 114 -47 98 0 150 60 150 175 0 85 -22 135 -73 167 -43 27 -113 29 -159 5 l-33 -18 0 86 0 85 -35 0 -35 0 0 -250z m219 44 c26 -19 51 -71 51 -108 0 -51 -31 -107 -67 -122 -70 -30 -133 28 -133 123 1 26 7 59 14 72 27 48 92 65 135 35z"/>
 <path d="M1170 410 l0 -250 30 0 c27 0 30 3 30 33 1 26 2 29 11 14 16 -27 64 -47 114 -47 98 0 150 60 150 175 0 85 -22 135 -73 167 -43 27 -113 29 -159 5 l-33 -18 0 86 0 85 -35 0 -35 0 0 -250z m219 44 c26 -19 51 -71 51 -108 0 -51 -31 -107 -67 -122 -70 -30 -133 28 -133 123 1 26 7 59 14 72 27 48 92 65 135 35z"/>
 <path d="M3610 410 l0 -250 30 0 c27 0 30 3 30 33 1 26 2 29 11 14 16 -27 64 -47 114 -47 98 0 150 60 150 175 0 85 -22 135 -73 167 -43 27 -113 29 -159 5 l-33 -18 0 86 0 85 -35 0 -35 0 0 -250z m219 44 c26 -19 51 -71 51 -108 0 -51 -31 -107 -67 -122 -70 -30 -133 28 -133 123 1 26 7 59 14 72 27 48 92 65 135 35z"/>
 <path d="M459 518 c-140 -38 -160 -270 -29 -339 51 -27 137 -25 181 4 107 71 101 265 -11 322 -37 19 -100 25 -141 13z m95 -60 c58 -26 80 -109 48 -180 -43 -98 -151 -86 -183 20 -16 54 -4 105 32 142 32 32 62 37 103 18z"/>
 <path d="M1681 520 c-78 -19 -121 -80 -121 -173 0 -69 17 -112 59 -151 40 -38 129 -48 180 -21 40 20 70 83 71 143 l0 42 -125 0 c-136 0 -131 -3 -102 58 22 45 107 67 170 43 26 -10 37 1 37 34 0 22 -113 39 -169 25z m119 -240 c0 -32 -44 -70 -80 -70 -34 0 -90 46 -90 74 0 13 14 16 85 16 79 0 85 -1 85 -20z"/>
 <path d="M2202 520 c-44 -10 -53 -20 -45 -48 4 -19 10 -22 27 -17 54 18 101 17 120 -3 28 -32 12 -60 -49 -87 -98 -44 -122 -110 -61 -171 29 -29 41 -34 83 -34 65 0 93 9 93 29 0 33 -14 42 -48 30 -40 -14 -79 -5 -87 20 -9 31 3 45 68 76 54 26 64 35 76 71 12 34 12 44 0 69 -28 57 -102 84 -177 65z"/>
 <path d="M2520 524 c-14 -3 -38 -10 -53 -16 -24 -9 -27 -15 -22 -37 9 -35 10 -35 42 -23 80 31 152 17 174 -32 22 -46 -4 -82 -86 -121 -89 -42 -125 -81 -125 -136 0 -55 23 -95 70 -119 44 -22 119 -26 169 -9 26 9 30 15 25 33 -10 32 -20 39 -42 27 -56 -30 -152 3 -152 53 0 36 22 57 100 95 84 41 110 71 117 132 8 83 -48 142 -147 152 -25 3 -56 3 -70 1z"/>
 <path d="M3309 518 c-140 -38 -160 -270 -29 -339 51 -27 137 -25 181 4 107 71 101 265 -11 322 -37 19 -100 25 -141 13z m95 -60 c58 -26 80 -109 48 -180 -43 -98 -151 -86 -183 20 -16 54 -4 105 32 142 32 32 62 37 103 18z"/>
 <path d="M0 276 l0 -243 65 -6 c74 -7 157 5 193 29 34 22 55 79 49 132 -9 84 -68 131 -172 140 l-65 5 0 93 0 94 -35 0 -35 0 0 -244z m189 -20 c52 -28 66 -97 28 -142 -20 -23 -34 -28 -85 -32 l-62 -4 0 96 0 96 45 0 c26 0 58 -6 74 -14z"/>
 <path d="M1940 340 l0 -180 30 0 c26 0 30 3 30 29 l0 29 29 -29 c20 -19 40 -29 60 -29 29 0 31 3 31 36 0 22 -4 33 -11 29 -19 -12 -67 17 -83 50 -11 24 -16 63 -16 139 l0 106 -35 0 -35 0 0 -180z"/>
 <path d="M2820 260 l0 -260 35 0 35 0 0 100 0 100 33 -20 c39 -24 97 -26 138 -4 48 24 59 65 59 214 l0 130 -35 0 -35 0 0 -124 c0 -110 -2 -126 -21 -150 -28 -35 -80 -36 -114 -1 -24 23 -25 30 -25 150 l0 125 -35 0 -35 0 0 -260z"/>
 </g>
<g id="layer102" fill="#ff2d55" stroke="none">
 <path d="M3610 410 l0 -250 30 0 c27 0 30 3 30 33 1 26 2 29 11 14 16 -27 64 -47 114 -47 98 0 150 60 150 175 0 85 -22 135 -73 167 -43 27 -113 29 -159 5 l-33 -18 0 86 0 85 -35 0 -35 0 0 -250z m219 44 c26 -19 51 -71 51 -108 0 -51 -31 -107 -67 -122 -70 -30 -133 28 -133 123 1 26 7 59 14 72 27 48 92 65 135 35z"/>
 <path d="M2520 524 c-14 -3 -38 -10 -53 -16 -24 -9 -27 -15 -22 -37 9 -35 10 -35 42 -23 80 31 152 17 174 -32 22 -46 -4 -82 -86 -121 -89 -42 -125 -81 -125 -136 0 -55 23 -95 70 -119 44 -22 119 -26 169 -9 26 9 30 15 25 33 -10 32 -20 39 -42 27 -56 -30 -152 3 -152 53 0 36 22 57 100 95 84 41 110 71 117 132 8 83 -48 142 -147 152 -25 3 -56 3 -70 1z"/>
 <path d="M3309 518 c-140 -38 -160 -270 -29 -339 51 -27 137 -25 181 4 107 71 101 265 -11 322 -37 19 -100 25 -141 13z m95 -60 c58 -26 80 -109 48 -180 -43 -98 -151 -86 -183 20 -16 54 -4 105 32 142 32 32 62 37 103 18z"/>
 <path d="M2820 260 l0 -260 35 0 35 0 0 100 0 100 33 -20 c39 -24 97 -26 138 -4 48 24 59 65 59 214 l0 130 -35 0 -35 0 0 -124 c0 -110 -2 -126 -21 -150 -28 -35 -80 -36 -114 -1 -24 23 -25 30 -25 150 l0 125 -35 0 -35 0 0 -260z"/>
 </g>

</svg>