<!DOCTYPE svg PUBLIC "-//W3C//DTD SVG 20010904//EN" "http://www.w3.org/TR/2001/REC-SVG-20010904/DTD/svg10.dtd">
<svg version="1.0" xmlns="http://www.w3.org/2000/svg" width="68px" height="68px" viewBox="0 0 680 680" preserveAspectRatio="xMidYMid meet">
<g id="layer101" fill="#ff2956" stroke="none">
 <path d="M44 608 c3 -40 10 -145 16 -233 7 -118 14 -169 27 -193 10 -17 21 -32 26 -32 5 0 7 -21 5 -47 l-3 -48 72 -10 c42 -6 79 -17 90 -27 42 -38 141 -12 158 41 4 13 21 21 58 27 43 7 53 13 55 32 2 12 7 22 12 22 4 0 17 16 29 35 17 30 23 63 31 198 6 89 13 195 16 235 l7 72 -303 0 -303 0 7 -72z m552 -10 c-3 -29 -8 -122 -12 -205 l-7 -153 -237 0 -237 0 -7 153 c-4 83 -9 176 -12 205 l-6 52 262 0 262 0 -6 -52z m-393 -422 c-5 -23 -1 -25 54 -36 58 -12 59 -12 55 -43 l-4 -32 -80 9 -80 10 6 29 c3 16 6 42 6 58 0 24 4 29 24 29 19 0 22 -4 19 -24z m197 10 c0 -35 -11 -44 -43 -36 -18 5 -51 14 -74 20 -67 17 -51 30 37 30 62 0 80 -3 80 -14z m104 -8 c12 -48 8 -54 -50 -67 -30 -7 -58 -10 -61 -7 -4 3 1 6 9 6 10 0 20 16 27 45 10 40 14 45 40 45 21 0 30 -6 35 -22z m-119 -118 c18 -7 18 -9 -8 -20 -35 -17 -40 -11 -31 36 7 34 8 36 14 15 3 -13 14 -27 25 -31z"/>
 <path d="M304 461 c-36 -16 -64 -60 -64 -102 0 -22 -4 -39 -9 -39 -15 0 -21 -31 -10 -51 7 -14 19 -19 37 -17 31 4 40 29 21 64 -19 37 -1 96 34 108 44 16 80 -3 91 -47 7 -26 6 -44 -3 -61 -19 -35 -10 -60 21 -64 18 -2 30 3 37 17 11 20 5 51 -10 51 -5 0 -9 18 -9 40 0 70 -75 126 -136 101z"/>
 </g>

</svg>